# xmcd CD database file
#
# Track frame offsets:
#	150
#	16462
#	26592
#	39995
#	49662
#	68860
#	84707
#	100875
#	115680
#	129312
#	139835
#	152035
#	168270
#	185250
#	195250
#	210050
#	224905
#	238505
#	252320
#	264302
#
# Disc length: 3698 seconds
#
# Revision: 0
# Processed by: cddbd v1.5.1PL0 Copyright (c) Steve Scherf et al.
# Submitted via: CDex 1.51
#
DISCID=0b0e7014
DTITLE=Ray Chaeles - Greatest country and Western Hits
DYEAR=1900
DGENRE=Country
TTITLE0=Your Cheatin Heart
TTITLE1=Hey Good Lookin
TTITLE2=Take These Chains from My Heart
TTITLE3=Don't Tell Me Your Troubles
TTITLE4=T Can't Stop Lovin You
TTITLE5=Just A Little Lovin
TTITLE6=It Makes No Difference Now
TTITLE7=You Don't Know Me
TTITLE8=You Are My Sunshine
TTITLE9=I'll Never Stand In Your Way
TTITLE10=Someday
TTITLE11=I Love You So Much It Hurts
TTITLE12=Careless Love
TTITLE13=Oh, Lonesome Me
TTITLE14=Hang Your Head In Shame
TTITLE15=Midnight
TTITLE16=No Letter Today
TTITLE17=Crying Time
TTITLE18=Together Again
TTITLE19=Don't Let Her Know
EXTD=
EXTT0=
EXTT1=
EXTT2=
EXTT3=
EXTT4=
EXTT5=
EXTT6=
EXTT7=
EXTT8=
EXTT9=
EXTT10=
EXTT11=
EXTT12=
EXTT13=
EXTT14=
EXTT15=
EXTT16=
EXTT17=
EXTT18=
EXTT19=
PLAYORDER=
